<?xml version="1.0" encoding="utf-8"?>
<!-- Generator: Adobe Illustrator 17.0.0, SVG Export Plug-In . SVG Version: 6.00 Build 0)  -->
<!DOCTYPE svg PUBLIC "-//W3C//DTD SVG 1.1//EN" "http://www.w3.org/Graphics/SVG/1.1/DTD/svg11.dtd">
<svg version="1.1" id="Layer_1" xmlns="http://www.w3.org/2000/svg" xmlns:xlink="http://www.w3.org/1999/xlink" x="0px" y="0px"
	 width="137.595px" height="54.679px" viewBox="0 0 137.595 54.679" enable-background="new 0 0 137.595 54.679"
	 xml:space="preserve">
<polygon fill="#4C4845" points="0,26.083 0,54.68 4.097,54.68 4.097,42.469 11.165,42.469 11.165,38.614 4.097,38.614 4.097,29.939 
	12.209,29.939 12.209,26.083 "/>
<g>
	<defs>
		<rect id="SVGID_1_" y="0" width="137.595" height="54.679"/>
	</defs>
	<clipPath id="SVGID_2_">
		<use xlink:href="#SVGID_1_"  overflow="visible"/>
	</clipPath>
	<path clip-path="url(#SVGID_2_)" fill="#4C4845" d="M13.85,32.83c0-4.66,3.535-6.989,6.868-6.989s6.868,2.329,6.868,6.989v14.86
		c0,4.658-3.535,6.989-6.868,6.989s-6.868-2.331-6.868-6.989V32.83z M17.947,47.69c0,1.967,1.285,2.892,2.771,2.892
		s2.771-0.925,2.771-2.892V32.83c0-1.968-1.285-2.892-2.771-2.892s-2.771,0.924-2.771,2.892V47.69z"/>
	<path clip-path="url(#SVGID_2_)" fill="#4C4845" d="M30.906,26.083h6.587c4.859,0,7.229,2.852,7.229,8.393
		c0,3.295-0.924,5.705-3.534,7.15l4.417,13.054h-4.338l-3.815-12.21h-2.45v12.21h-4.096V26.083z M35.002,38.855h2.329
		c2.852,0,3.294-1.607,3.294-4.459c0-2.891-0.482-4.457-3.494-4.457h-2.129V38.855z"/>
	<polygon clip-path="url(#SVGID_2_)" fill="#4C4845" points="47.719,26.083 51.655,26.083 56.916,41.224 56.997,41.224 
		62.218,26.083 66.194,26.083 66.194,54.679 62.097,54.679 62.097,37.288 62.017,37.288 57.96,49.578 55.912,49.578 51.896,37.288 
		51.815,37.288 51.815,54.679 47.719,54.679 	"/>
	<path clip-path="url(#SVGID_2_)" fill="#4C4845" d="M74.292,26.084h3.414l6.385,28.596h-4.096l-1.205-6.145h-5.582l-1.205,6.145
		h-4.098L74.292,26.084z M76.02,34.316h-0.08L73.93,44.68h4.097L76.02,34.316z"/>
	<polygon clip-path="url(#SVGID_2_)" fill="#4C4845" points="87.598,29.938 82.859,29.938 82.859,26.083 96.434,26.083 
		96.434,29.938 91.694,29.938 91.694,54.679 87.598,54.679 	"/>
	<rect x="98.962" y="26.083" clip-path="url(#SVGID_2_)" fill="#4C4845" width="4.096" height="28.596"/>
	<path clip-path="url(#SVGID_2_)" fill="#4C4845" d="M106.31,32.83c0-4.66,3.534-6.989,6.868-6.989s6.868,2.329,6.868,6.989v14.86
		c0,4.658-3.534,6.989-6.868,6.989s-6.868-2.331-6.868-6.989V32.83z M110.406,47.69c0,1.967,1.285,2.892,2.772,2.892
		c1.486,0,2.771-0.925,2.771-2.892V32.83c0-1.968-1.285-2.892-2.771-2.892c-1.487,0-2.772,0.924-2.772,2.892V47.69z"/>
	<polygon clip-path="url(#SVGID_2_)" fill="#4C4845" points="123.297,26.083 127.233,26.083 133.418,43.313 133.498,43.313 
		133.498,26.083 137.596,26.083 137.596,54.679 133.74,54.679 127.475,37.489 127.394,37.489 127.394,54.679 123.297,54.679 	"/>
	<polygon clip-path="url(#SVGID_2_)" fill="#C9AA5D" points="54.024,19.784 54.024,19.782 54.024,0 68.237,0 64.308,3.959 
		57.984,3.959 57.984,7.911 68.237,7.911 64.308,11.87 57.984,11.87 57.984,15.824 57.984,15.823 79.599,15.817 79.599,11.87 
		69.846,11.87 73.802,7.911 79.611,7.911 79.611,3.959 69.846,3.959 73.802,0 83.571,0 83.571,19.782 	"/>
</g>
</svg>
