<?xml version="1.0" encoding="utf-8"?>
<!-- Generator: Adobe Illustrator 17.0.0, SVG Export Plug-In . SVG Version: 6.00 Build 0)  -->
<!DOCTYPE svg PUBLIC "-//W3C//DTD SVG 1.1//EN" "http://www.w3.org/Graphics/SVG/1.1/DTD/svg11.dtd">
<svg version="1.1" id="Layer_1" xmlns="http://www.w3.org/2000/svg" xmlns:xlink="http://www.w3.org/1999/xlink" x="0px" y="0px"
	 width="79.214px" height="50.513px" viewBox="0 0 79.214 50.513" enable-background="new 0 0 79.214 50.513" xml:space="preserve">
<rect x="14.282" y="1.75" fill="#FFFFFF" width="63.182" height="34.561"/>
<g>
	<defs>
		<rect id="SVGID_1_" y="0" width="79.214" height="50.513"/>
	</defs>
	<clipPath id="SVGID_2_">
		<use xlink:href="#SVGID_1_"  overflow="visible"/>
	</clipPath>
	<path clip-path="url(#SVGID_2_)" fill="#4C4845" d="M77.464,38.061H14.282c-0.967,0-1.75-0.784-1.75-1.75V1.75
		c0-0.967,0.783-1.75,1.75-1.75h63.182c0.967,0,1.75,0.783,1.75,1.75v34.561C79.214,37.277,78.431,38.061,77.464,38.061
		 M16.032,34.561h59.682V3.5H16.032V34.561z"/>
	<rect x="1.75" y="14.202" clip-path="url(#SVGID_2_)" fill="#FFFFFF" width="63.182" height="34.561"/>
	<path clip-path="url(#SVGID_2_)" fill="#4C4845" d="M64.932,50.513H1.75c-0.967,0-1.75-0.783-1.75-1.75V14.202
		c0-0.967,0.783-1.75,1.75-1.75h63.182c0.966,0,1.75,0.783,1.75,1.75v34.561C66.682,49.73,65.898,50.513,64.932,50.513 M3.5,47.013
		h59.682V15.952H3.5V47.013z"/>
	
		<rect x="13.368" y="8.692" transform="matrix(0.7076 0.7066 -0.7066 0.7076 23.6066 -2.5363)" clip-path="url(#SVGID_2_)" fill="#4C4845" width="3" height="37.127"/>
	
		<rect x="55.098" y="16.051" transform="matrix(0.7076 0.7066 -0.7066 0.7076 36.2237 -31.8508)" clip-path="url(#SVGID_2_)" fill="#4C4845" width="3" height="23.587"/>
	
		<rect x="16.608" y="24.941" transform="matrix(0.7076 0.7066 -0.7066 0.7076 32.8252 -1.4033)" clip-path="url(#SVGID_2_)" fill="#4C4845" width="3" height="28.042"/>
</g>
</svg>
