<?xml version="1.0" encoding="utf-8"?>
<!-- Generator: Adobe Illustrator 17.0.0, SVG Export Plug-In . SVG Version: 6.00 Build 0)  -->
<!DOCTYPE svg PUBLIC "-//W3C//DTD SVG 1.1//EN" "http://www.w3.org/Graphics/SVG/1.1/DTD/svg11.dtd">
<svg version="1.1" id="Layer_1" xmlns="http://www.w3.org/2000/svg" xmlns:xlink="http://www.w3.org/1999/xlink" x="0px" y="0px"
	 width="982.724px" height="481.725px" viewBox="0 0 982.724 481.725" enable-background="new 0 0 982.724 481.725"
	 xml:space="preserve">
<g>
	<path fill="#54504D" d="M435.118,143.805l-4.238,5.648l-2.824,2.825l-5.648,3.106l-0.848,2.543c0,0-2.26,2.26-1.977,3.673
		c0.284,1.413,0.284,3.954,0.284,3.954s-3.955,3.672-5.65,4.802c-1.695,1.129-3.956,3.672-3.956,3.672s-1.411,1.695-2.258,2.26
		c-0.847,0.563-2.259,2.259-3.39,3.954c-1.131,1.695-2.26,2.824-2.825,3.671c-0.565,0.847-2.26,2.825-3.107,5.932
		c-0.847,3.108-3.107,6.779-3.107,6.779l-0.566,1.412c0.283,4.802,0.282,5.649,0.848,7.345c0.565,1.694,1.131,1.128,0.565,4.801
		c-0.565,3.671-0.565,5.084-1.13,6.779c-0.564,1.693-2.26,4.801-2.823,6.215c-0.566,1.412,1.129,3.953,1.129,3.953
		s0.849,3.673,0.283,4.52c-0.565,0.849,0.282,2.543,0.282,2.543s3.39,1.976,4.52,3.107c1.13,1.129,3.107,2.825,3.39,3.672
		c0.283,0.848,2.542,4.802,2.825,5.65c0.282,0.847,2.542,3.953,3.107,4.801c0.565,0.848,3.389,3.955,3.389,3.955
		s3.672,2.823,4.521,3.954c0.847,1.129,3.389,1.694,4.235,2.541c0.848,0.847,2.825,0.563,3.954,1.413
		c1.131,0.847,3.39-0.566,4.521,0c1.129,0.565,4.238-0.565,5.085-1.13c0.847-0.564,2.823-2.541,4.236-1.695
		c1.412,0.846,2.259,0,3.39,0.282c1.128,0.283,2.823-1.128,3.953-1.128c1.131,0,3.954-1.131,4.801-1.131
		c0.849,0,3.674-1.696,4.804-1.696c1.128,0,2.541-1.127,3.953-0.564c1.412,0.564,0.847-1.128,3.39-0.282
		c2.542,0.846,3.389,0,4.236,0.846c0.849,0.848,1.979,0.002,2.827,1.132c0.847,1.128,2.258,1.975,2.541,3.106
		c0.281,1.13,1.976,2.261,1.976,2.261l1.696,0.281c0,0,2.261-1.694,2.825-0.563c0.564,1.129,3.107,0.848,3.107,0.848l2.541,2.824
		l0.848,1.129c0,0,1.696,4.52,1.412,6.214c-0.282,1.695-0.282,5.367-1.129,6.214c-0.847,0.848-1.412,4.52-1.412,4.52
		s-1.131,1.129,1.412,3.39c2.542,2.261,4.238,4.236,5.085,5.364c0.848,1.131,3.108,4.24,3.388,6.216
		c0.284,1.977,0.848,3.106,1.979,5.649c1.13,2.542,2.541,2.824,2.824,5.65c0.283,2.824,0.847,2.825,0.565,4.801
		c-0.283,1.977-1.13,2.26-0.283,3.672c0.847,1.413,1.975,3.955,1.696,4.802c-0.283,0.847-0.849,4.519-0.849,4.519l-0.564,1.696
		l-2.542,4.804l-1.695,2.54c-0.565,1.976-1.694,3.954-1.412,6.779c0.281,2.825-1.412,2.823,0.847,5.647
		c2.26,2.826,3.388,5.933,4.802,8.476c1.413,2.541,2.26,5.083,2.541,6.778c0.283,1.695,1.413,2.261,1.978,4.52
		c0.563,2.26,0.847,3.388,0.847,4.801c0,1.412-0.284,5.085,0.283,5.932c0.564,0.847,0.847,3.391,1.13,4.521
		c0.282,1.13-0.849,1.413,0.847,3.39c1.695,1.977,2.825,3.106,3.954,4.519c1.129,1.414,0.847,0.848,1.695,2.825
		c0.847,1.977,1.977,3.109,2.261,4.802c0.282,1.694,0.563,5.931,1.411,7.908c0.847,1.978,1.977,3.956,1.977,3.956
		s3.108,1.976,4.238,1.694c1.128-0.282,3.389-2.822,5.085-1.977c1.695,0.848,3.107,0,4.519,0s2.825-1.695,4.238-1.695
		c1.412,0,3.388-2.26,4.52-1.694c1.129,0.563,2.54-0.567,3.953-1.979c1.413-1.411,2.26-2.54,4.801-4.8
		c2.543-2.26,2.261-2.262,3.955-3.673c1.695-1.414,3.391-4.521,5.367-5.085c1.977-0.565,2.541-2.54,3.106-3.954
		c0.566-1.413,0.847-2.26,1.696-3.39c0.848-1.129,0.282,0.286,1.695-3.389c1.413-3.673,3.11-5.083,4.522-5.932
		c1.411-0.847,2.258-2.541,3.105-2.825c0.848-0.283,2.261,0.847,1.696-1.695c-0.564-2.541,0-6.213-0.564-7.06
		c-0.566-0.85-1.414,1.975-1.13-2.263c0.285-4.235,3.389-8.473,3.389-8.473s4.237-5.366,5.65-6.213
		c1.413-0.848,1.694-1.695,3.673-2.825c1.976-1.129,6.213-3.953,6.213-5.366c0-1.414,1.696-5.085,1.696-5.934
		c0-0.847,0-1.694-0.564-6.497c-0.566-4.8,0.564-3.672-1.13-8.191c-1.695-4.519-1.979-10.168-3.108-11.58
		c-1.13-1.413-0.566-5.086-0.566-6.215c0-1.129,1.979-3.954,2.827-5.083c0.847-1.131,4.519-5.651,4.519-5.651
		s5.648-6.496,7.626-9.602c1.978-3.108,3.954-5.932,5.366-7.061c1.413-1.13,4.803-3.675,6.779-6.498
		c1.978-2.824,5.932-8.19,6.216-9.04c0.281-0.845,2.54-3.67,2.54-3.67s3.107-3.673,3.673-5.65
		c0.563-1.978,3.387-12.994,2.822-12.429c-0.562,0.566-3.953,1.13-5.083,1.412c-1.129,0.284,1.696,1.412-6.497,0.848
		c-8.19-0.566-12.427,0.847-12.427,0.847c-2.543-0.566-4.52,2.259-5.368-1.695c-0.847-3.953-1.413-6.213-3.106-9.038
		c-1.696-2.825-2.826-3.954-5.366-7.628c-2.541-3.67-2.262-1.977-4.522-4.8c-2.259-2.825-2.825-1.979-4.236-5.649
		c-1.412-3.672-2.542-2.259-4.237-7.344c-1.696-5.087-2.825-5.651-3.672-8.475c-0.848-2.824-1.977-3.673-2.543-6.214
		c-0.564-2.543-7.06-15.535-7.908-16.384c-0.848-0.845-2.26-5.367-1.978-4.519c0.284,0.848,4.238,3.672,4.238,3.672
		s2.259-0.848,3.107-0.848c0.847,0,4.237,3.109,4.237,4.237c0,1.13,5.935,6.498,7.345,10.452c1.412,3.954,3.11,6.779,3.39,7.909
		c0.279,1.129,3.107,5.649,4.238,7.345c1.128,1.695,4.8,5.084,5.364,6.779c0.565,1.695,5.934,7.344,5.934,11.016
		c0,3.672,2.54,8.473,2.823,9.603c0.284,1.129,5.366,2.543,5.366,2.543l6.781-1.695c0,0,10.167-6.498,11.298-6.498
		c1.128,0,10.17-4.237,10.17-4.237s3.671-3.388,6.212-5.365c2.542-1.977,5.367-5.648,5.933-7.345
		c0.564-1.695,1.694-1.976,3.953-4.52c2.261-2.543,5.368-5.084,3.391-6.779c-1.978-1.694-3.108-1.13-5.932-3.955
		c-2.825-2.823-2.542-2.258-4.52-5.932c-1.978-3.67,0.282-7.908-3.956-3.67c-4.235,4.236-2.541,5.366-6.779,6.215
		c-4.235,0.846-5.932,3.671-7.908,0.846c-1.977-2.825-3.953-1.129-5.085-5.367c-1.13-4.237-1.978-4.52-2.259-6.213
		c-0.281-1.696,0-1.696-2.26-5.934c-2.259-4.236-0.565-10.733,0.847-7.061c1.413,3.672,3.672,4.236,7.345,6.779
		c3.671,2.541,5.367,4.52,8.755,4.803c3.39,0.281,6.215,0,6.78,0.563c0.564,0.566,1.129-0.281,2.542,0.282
		c1.413,0.566,1.975-0.845,2.541,1.412c0.565,2.26,3.672,2.543,5.084,3.955c1.413,1.411,1.413,0.848,5.086,1.411
		c3.674,0.566,8.759,0.566,8.759,0.566l5.364-0.283l6.215,0.563c0,0,4.522,2.543,5.65,2.543c1.129,0,1.412,3.108,4.236,4.802
		c2.825,1.696,3.39,1.977,5.084,3.955c1.698,1.977,1.413,2.824,3.672,4.801c2.261,1.979,5.935-0.281,6.499-1.127
		c0.563-0.848,3.387-2.26,2.825,0c-0.566,2.259,2.823,1.411,1.975,6.779c-0.847,5.365-1.413,3.953,0,7.626
		c1.412,3.672,7.627,14.971,7.91,18.36c0.284,3.39,1.977,2.26,2.259,5.369c0.284,3.106,1.977,4.235,1.977,6.495
		s1.979,2.824,2.26,4.521c0.285,1.695,3.391,0.281,4.238,0c0.848-0.284,4.801-3.956,4.801-3.956s1.698-0.563,1.413-3.39
		c-0.283-2.822,0-2.258,0-6.495s-1.694-4.237-0.847-8.472c0.847-4.237,3.106-6.781,3.672-8.757c0.565-1.977,2.825-5.366,3.953-5.65
		c1.13-0.282,7.345-3.388,8.758-5.367c1.412-1.977,3.672-4.237,5.932-6.496c2.259-2.259,6.214-5.083,7.062-4.236
		c0.847,0.847,0.565,0.564,1.978,0.564c1.412,0,3.954,1.131,5.931,1.413c1.977,0.283,5.933,5.084,6.78,7.627
		c0.847,2.542,0.282,1.976,3.39,5.649c3.107,3.671,5.932,1.411,5.932,5.931c0,4.52,0,4.237,1.413,5.932
		c1.412,1.696,3.106-3.107,4.8-2.541c1.694,0.566,1.976-0.565,3.388,3.954c1.412,4.521,2.259,4.521,2.544,9.04
		c0.281,4.519-0.284,0.282-0.284,3.953c0,3.673-0.283,3.955,0.284,7.344c0.563,3.392,2.539,4.521,2.259,5.086
		c0,0,1.694-4.802,1.128-8.192c-0.562-3.389,0-8.19,1.413-9.602c1.412-1.414,2.826-2.825,3.954,0.847
		c1.131,3.671,1.696,0.847,4.237,5.084c2.544,4.238,4.803,3.388,5.085,5.366c0.282,1.978,1.698,2.261,3.672,3.954
		c1.978,1.696,3.672-0.281,5.932-1.976c2.261-1.696,8.473-7.91,8.758-10.453c0.281-2.541,2.824-1.977-1.697-8.472
		c-4.52-6.496-4.52-8.757-9.321-12.711c-4.799-3.954-7.625-4.237-3.952-9.322c3.672-5.084,5.367-8.473,7.626-7.06
		c2.261,1.412,6.212,1.128,6.212,6.779c0,5.649-1.129,11.863,2.825,5.084c3.954-6.779,5.933-10.733,4.801-9.601
		c-1.128,1.129,2.543-2.261,2.543-2.261s0.284-2.542,5.086-3.671c4.8-1.132,6.212-1.696,7.909-2.543
		c1.694-0.848,6.497-6.498,7.344-9.039c0.847-2.543,3.107-7.062,2.542-9.038c-0.565-1.979-3.391-11.581-3.955-11.3
		c-0.564,0.284-0.281,0.284-3.952-3.67c-3.675-3.955-6.216-6.78-6.781-8.475c-0.564-1.695-1.977-1.978-0.283-4.237
		c1.696-2.259,2.544-1.976,2.826-3.954c0.281-1.976,2.54-3.672-1.697-2.259c-4.235,1.412-1.129,0.566-4.801,0.284
		c-3.672-0.284-13.275,1.976-8.472-3.955c4.8-5.932,6.21-9.602,7.059-9.602s5.086-4.803,5.367-0.284
		c0.284,4.519,1.977,3.388,2.26,6.213c0.284,2.825,5.932-3.106,5.932-3.106s1.977,0.565,3.389,1.977
		c1.413,1.412,1.413,5.932,1.413,5.932s-1.13-1.413,1.978,0.847c3.108,2.261,6.495,1.129,6.495,5.932c0,4.801,0,5.085,1.978,6.214
		c1.979,1.13,3.953,0.566,5.651-0.847c1.694-1.411,4.518-6.496,4.518-6.496s0.282-1.978-4.237-4.803
		c-4.519-2.824-7.344-4.8-9.037-6.213c-1.696-1.412-1.131-5.649,0.562-7.345c1.698-1.696,2.543-2.543,1.978-4.802
		c-0.566-2.261,0.849-3.955,5.085-3.673c4.237,0.284,5.084-0.281,5.084-0.281s0.85,0.563,0.85-1.131s5.364-9.604,3.951-9.604
		c-1.412,0,0.286-1.976-0.564-5.083c-0.848-3.109,2.824-7.909-0.282-10.169c-3.107-2.26-3.955-3.391-5.932-6.779
		c-1.976-3.391-1.696-3.955-9.039-4.803c-7.344-0.847-10.733,1.695-12.429-0.563c-1.695-2.261-2.541,3.388-3.67-3.391
		c-1.13-6.779,1.695-11.3,1.695-11.3s4.519-2.823,5.647-4.801c1.13-1.978,5.649-2.825,9.324-1.412
		c3.672,1.412,9.037,1.129,13.559,1.979c4.519,0.846,4.236,3.671,6.497,0c2.258-3.674,0-5.367,1.694-7.345
		c1.696-1.978,3.672-5.085,5.083-3.109c1.412,1.98,4.241,3.955,6.501,1.412c2.259-2.541,3.106-2.823,3.106-2.823l1.127,1.13
		c0,0,2.542-1.414,2.542,1.127c0,2.544,2.544,5.369,1.131,7.345c-1.414,1.979-3.388,1.696-3.388,6.497c0,4.804,0,3.956,3.104,7.911
		c3.109,3.953,5.085,0.564,5.65,4.802c0.566,4.236,1.128,3.391,4.238,6.214c3.107,2.824,2.54,2.824,4.801,4.519
		c2.261,1.696,3.391,3.391,3.391,0.566s0.283-4.237,0-6.779c-0.285-2.541,2.26-4.52,0.562-8.757
		c-1.694-4.237-0.281-3.954-3.67-7.061c-3.391-3.106-5.651,0.566-6.778-3.955c-1.131-4.519,5.365-6.497,7.061-7.061
		c1.695-0.564,4.235-3.955,4.799-1.694c0.566,2.258-4.235,10.451,3.957,1.694c8.19-8.756,4.519-5.084,4.519-5.084
		s4.237-0.565,5.084,0c0.846,0.566,3.11-2.542,2.259-2.259c-0.847,0.284-9.036-4.52-9.036-4.52l-5.934-3.388
		c0,0,1.979-1.414,3.391-1.13c1.413,0.282,1.696-2.825,3.109-3.108c1.412-0.283,11.015,1.979,12.994,3.108
		c1.976,1.13,9.037,1.412,8.188,0.847c-0.847-0.566-5.364-3.954-5.648-5.085c-0.281-1.129-10.169-3.389-13.275-3.107
		c-3.108,0.281-5.931,1.128-8.473,0.281c-2.544-0.847-6.215-3.107-8.192-3.107s-26.833-4.802-27.963-4.519
		c-1.129,0.282-2.826,5.648-3.673,4.801c-0.847-0.847-2.259-0.848-6.216-1.978c-3.951-1.129-9.32-1.977-16.383-2.541
		c-7.06-0.565-11.86,0.565-13.838-1.695c-1.978-2.259-6.213-1.412-11.016-1.696c-4.801-0.281-10.451,0-12.993,0
		c-2.543,0-8.472-0.281-9.886-0.564c-1.413-0.284-3.107-2.261-4.801-2.542c-1.697-0.283-1.414-0.847-4.803-1.411
		c-3.389-0.566-3.107-4.237-4.236-1.131c-1.13,3.108-0.566,2.26-2.26,3.389c-1.696,1.131-3.39,3.39-4.521,3.39
		c-1.128,0-5.647,0.282-6.496-0.282c-0.849-0.565-2.261-1.13-5.085-1.13c-2.825,0-2.825,0.281-6.497-0.283
		c-3.672-0.565-6.497-0.284-9.887-1.977c-3.389-1.695-3.389-2.825-6.214-2.542c-2.822,0.283-2.822-0.565-6.779-0.565
		c-3.953,0-8.755,2.26-11.298,2.542c-2.54,0.283-8.19-0.283-10.168-1.13c-1.979-0.847-2.542-2.824-9.887-1.978
		c-7.344,0.848-11.581,0.848-10.169-1.412c1.413-2.259,3.107-4.519,3.954-4.801c0.848-0.283,2.824-1.694,1.411-2.259
		c-1.411-0.566-2.824-1.412-6.212-1.696c-3.391-0.282-3.11,1.13-8.193,0.565s2.825-1.976-7.625-1.694
		c-10.451,0.284-12.993,1.129-14.123,1.129s-2.543-2.258-5.367,1.13c-2.825,3.389-6.782,5.366-12.429,5.648
		c-5.648,0.284-5.932-0.564-11.297,1.412c-5.367,1.977-8.758-0.565-7.627,3.954c1.128,4.519,2.542,6.215,2.542,7.062
		c0,0.847-2.542,6.497-5.648,3.107c-3.11-3.389-8.758-16.665-6.216-7.626c2.541,9.038,8.19,12.146,2.825,13.558
		c-5.366,1.412-4.804-0.564-5.651-1.13c-0.846-0.565,0-4.519-0.282-6.78c-0.284-2.259-0.847-3.672-1.977-4.801
		c-1.128-1.131-0.848-2.825-3.107-3.39c-2.26-0.564-0.282-1.695-3.954-1.695s-6.778-2.26-5.931,2.825
		c0.846,5.084,1.693,1.695,3.952,6.497c2.258,4.801,6.496,1.411,3.39,4.801c-3.107,3.39-11.298,2.26-13.276,0.848
		c-1.977-1.413-1.411,0.565-5.086-1.977c-3.672-2.543-2.54-4.521-6.777-2.543c-4.236,1.978-5.649,5.65-7.345,4.237
		c-1.695-1.413-5.648,1.976-7.061,0.283c-1.413-1.695-7.063-1.695-8.191,0c-1.131,1.695-4.52,1.412-9.322,3.672
		c-4.801,2.259-3.391,0.281-9.322,5.084c-5.933,4.801-9.322,8.756-11.298,5.648c-1.977-3.105-12.712-8.473-8.474-9.321
		c4.238-0.847,6.214-2.541,8.474-0.565c2.26,1.977,5.934,1.413,6.496,0c0.565-1.413,3.108-2.825-0.283-4.519
		c-3.389-1.695-3.671-0.566-9.038-2.542c-5.367-1.978,0-1.412-7.345-2.543c-7.344-1.129-10.452-1.694-12.429-2.259
		c-1.975-0.565-4.801,0-7.625-0.282c-2.826-0.283-4.801-0.847-7.345-0.565c-2.541,0.282-3.953-0.282-7.344,2.26
		c-3.39,2.543-5.933,3.672-8.192,5.649c-2.259,1.976-8.189,5.932-9.885,7.345c-1.695,1.412-7.627,5.931-8.192,7.626
		c-0.565,1.696,0.565,3.107-1.696,4.237c-2.26,1.129-4.519,1.129-6.214,1.412c-1.695,0.282,0-2.543-1.695,0.282
		c-1.695,2.825-1.13,12.994,0.282,11.58c1.412-1.413,0.565-5.93,6.779-1.692c6.215,4.235,10.17,3.67,9.886,7.625
		c-0.282,3.954,4.237,3.672,4.802,4.52c0.565,0.846,3.389-1.131,3.389-1.131s6.215-3.954,6.215-5.931
		c0-1.977,3.954-6.496,3.954-6.496s-2.826-1.412-2.826-4.237c0-2.824,0.85-3.673,1.413-6.498c0.565-2.824-3.107,0.001,5.367-5.368
		c8.473-5.366,9.038-1.692,9.038-1.692s1.129,1.129-0.283,2.823c-1.412,1.696-3.954,6.216-4.519,6.779
		c-0.566,0.566,2.542,5.085,3.953,5.085c1.413,0,4.238-1.13,5.933-0.848c1.696,0.284,4.519-0.846,5.366-0.281
		c0.849,0.565,2.825,2.259,1.412,3.672c-1.412,1.412-4.52,3.106-6.778,2.542c-2.261-0.563-5.651-4.52-3.673,1.13
		c1.978,5.649-0.282,7.061-1.978,6.779c-1.693-0.282-5.366-3.106-4.801,1.131c0.566,4.235-3.671,7.06-4.519,7.06
		c-0.849,0-2.541-0.283-2.541-0.283s-2.544-0.283-3.955-0.283c-1.413,0-4.238,1.412-5.085,2.542
		c-0.848,1.13-1.977,0.284-3.389,0.284c-1.412,0,0-1.695-2.825-2.26c-2.824-0.565-4.519-1.13-6.213,0
		c-1.696,1.129-4.237,1.694-5.368,0.847c-1.129-0.847,0.566-2.826-1.695-1.694c-2.259,1.129-3.954,4.236-4.801,4.52
		c-0.848,0.281,2.542,0-0.848,0.281c-3.389,0.284-4.801,1.132-6.496,1.696c-1.696,0.566,0.564,3.954-2.543,5.083
		c-3.107,1.13-0.846-1.412-3.954,1.13c-3.107,2.543-3.673,4.802-4.802,5.085c-1.13,0.283-0.847,0.847-3.389,1.129
		c-2.543,0.283-2.259,0.565-3.673,0.847c-1.412,0.283,0.283,0.849-2.824,0.283c-3.108-0.565-5.367,0.566-4.803,1.695
		c0.565,1.129,11.016,4.237,3.108,3.954c-7.909-0.282-5.366,1.13-3.672,2.259c1.695,1.13,2.541,2.259,3.389,2.543
		c0.849,0.282,2.259,3.673,2.259,3.673s2.26-0.284,0.849,1.694c-1.412,1.978,0.564,2.543-0.849,5.085
		c-1.412,2.543-1.412,0.847-2.541,1.412c-1.129,0.563-2.825,2.542-5.933,0.847s-5.365-2.543-9.038-2.824
		c-3.672-0.283-1.131-0.847-3.672,1.129c-2.543,1.979-3.108,4.237-2.824,6.779c0.282,2.541,0.565,5.932-0.284,7.627
		c-0.847,1.694-0.847,3.39-0.283,5.932c0.566,2.542,2.261,3.673,2.261,3.673s3.955,0.564,4.802,0.848
		c0.847,0.282,2.542-0.565,4.801,0.845c2.26,1.413,4.52,1.979,5.932,0.284c1.412-1.694,7.062-3.672,8.758-5.366
		c1.694-1.696,2.824-2.259,1.977-3.954c-0.847-1.696,1.695-5.932,3.107-6.78c1.412-0.847,4.519-1.695,4.519-1.695l3.39-5.084
		c0,0,2.824-3.108,4.236-2.825c1.412,0.283,9.321,3.109,8.757-0.563c-0.565-3.673,0.565-4.803,1.412-3.391
		c0.847,1.412,3.107,0.847,3.107,0.847s1.13-0.563,1.977,0.284c0.847,0.846,1.976,4.52,3.672,5.366
		c1.695,0.848,3.107,1.695,4.238,2.259c1.129,0.566,2.26,0,4.52,1.978c2.259,1.977,4.519,3.108,4.8,3.954
		c0.285,0.847,2.261,2.825,2.261,2.825s1.977,0.564,1.412,1.695c-0.565,1.13-3.388,4.52-4.801,5.084
		c-1.413,0.565-5.084-0.566-3.672,0.565c1.41,1.129,3.389,2.542,4.237,1.694c0.848-0.847,6.213-6.497,6.213-6.497
		s-0.283,0.282,0-1.413c0.283-1.693,0-3.671,1.413-2.824c1.412,0.849,2.26,1.978,2.825,0.849c0.564-1.131,1.129-0.565-0.284-1.412
		c-1.413-0.848-4.801-5.65-6.497-5.932c-1.695-0.284-5.933-3.109-5.933-3.109s-0.846-0.847-2.824-3.106
		c-1.977-2.26-2.541-1.695-3.108-3.673c-0.564-1.976-2.26-4.519,0.848-3.954c3.109,0.565,5.084,2.541,7.909,4.237
		c2.825,1.695,2.261,2.258,4.802,3.954c2.542,1.695,2.827,3.391,4.802,3.108c1.976-0.282,4.238,1.13,4.238,3.672
		c0,2.543,0.563,5.366,1.128,5.932c0.566,0.566,2.259,1.696,2.825,2.825c0.564,1.13,1.695,3.954,2.541,5.084
		c0.848,1.129,1.695,1.978,2.543,3.391c0.847,1.412,1.129-0.284,1.976,0.282c0.848,0.565,1.978,0.281,1.978-0.848
		c0-1.13,0.281-3.107,0.281-3.107s3.957-1.13,2.827-1.696c-1.13-0.565-4.521-3.954-4.238-5.084c0.283-1.129,0-3.388,1.411-3.106
		c1.413,0.282,2.826,2.824,5.933,0.564s6.779-3.39,5.649,0c-1.129,3.389,0.285,3.953,0,7.626c-0.281,3.673,1.132,2.543,3.109,4.52
		c1.977,1.978,3.389,2.262,4.801,2.825c1.413,0.566,3.671,0.284,5.933,0.566c2.26,0.283,3.672-0.848,5.65-0.282
		c1.975,0.565,6.495-0.284,7.343,0.282c0.849,0.565,4.238-1.129,4.519,0.847c0.283,1.978,1.414-0.282,0.566,4.237
		c-0.847,4.519-1.977,7.626-1.977,7.626c-3.108,5.932-4.237,7.345-5.65,7.628c-1.411,0.282-2.259,1.129-4.8,0.847
		c-2.543-0.284-5.65,0-9.322-0.847c-3.672-0.849-10.452,0.847-13.276-0.849c-2.825-1.694-6.779-0.282-8.476-2.258
		c-1.694-1.978-4.517-1.696-5.648-2.825c-1.13-1.13-1.694-4.236-1.694,0.283c0,4.521-2.543,4.802-3.108,7.062
		c-0.565,2.259,0.846,1.129-2.261,0.847c-3.107-0.284-3.954,1.412-8.473-1.977c-4.521-3.389-6.779-3.389-9.038-4.802
		c-2.262-1.413-4.521,2.541-6.779-1.977c-2.261-4.52-5.368-0.848-5.65-4.52c-0.283-3.673,0-3.388,0.282-5.649
		c0.285-2.26,3.39-4.236,1.978-5.083c-1.413-0.847-0.284-2.26-2.26-1.412c-1.978,0.847-4.802,1.129-7.062,1.976
		c-2.26,0.849,5.084,0-5.932,0.849c-11.016,0.847-14.124,1.976-14.124,1.976s-0.847-0.564-2.26,0.565
		c-1.412,1.129-3.39,2.825-5.366,1.978c-1.977-0.849-3.108-0.566-4.802-0.283c-1.695,0.283-2.823-1.411-4.801,0
		s-4.237,1.977-5.085,1.411C436.531,146.064,435.118,143.805,435.118,143.805"/>
	<path fill="#54504D" d="M624.086,329.664c-0.847,3.108-3.954,7.626-3.954,7.626l-5.651,2.825c0,0-1.974,1.696-3.106,1.978
		c-1.13,0.281-3.955,1.695-3.955,1.695s-2.541-0.566-1.695,1.976c0.847,2.542,1.131,5.651,0.847,6.496
		c-0.281,0.849-0.281,2.544-0.281,4.804c0,2.259-0.847,5.083-2.26,5.647c-1.412,0.566-2.825,1.131-2.543,3.109
		c0.284,1.978,0.284,7.909,0.284,7.909l3.673,5.649c0,0,1.13-0.847,3.39-0.847c2.257,0,4.519-1.975,4.519-1.975
		s2.544,0.562,2.259-2.543c-0.283-3.108,1.132-6.779,0.847-7.627c-0.281-0.847,2.543-4.52,2.543-5.366
		c0-0.848,2.825-4.8,2.825-6.215c0-1.411,1.977-3.672,2.259-5.364c0.283-1.697,0.565-5.65,1.13-6.78
		c0.566-1.129,0.848-2.26,0.848-3.389v-3.39L624.086,329.664z"/>
	<path fill="#54504D" d="M845.254,367.798c-0.847,1.128-1.412,13.276-1.977,14.688c-0.564,1.412-1.695,8.757-1.128,10.45
		c0.564,1.696,1.411,7.909,0.847,9.887c-0.566,1.977,0.283,8.191-1.132,7.909c-1.41-0.284-1.974,0.283-1.974,1.129
		c0,0.849,1.974,2.542,1.974,2.542s3.393,0.001,4.804-0.283c1.412-0.282,4.237-1.695,6.497-1.695s3.673-1.696,5.649-1.696
		c1.977,0,6.215-1.41,7.345-0.847c1.129,0.564,2.823-3.389,4.801-2.541c1.978,0.847,6.216-1.978,8.192-1.978
		c1.976,0,2.825-3.108,5.085-2.541c2.259,0.565,6.497-1.129,8.475-0.285c1.974,0.85,5.084-2.823,6.495,0
		c1.413,2.826,5.651,3.956,5.651,5.367c0,1.412-0.286,4.521-0.286,4.521l3.391-0.284c0,0,5.365-3.389,6.215-3.389
		c0.847,0,2.824-2.824,2.824-1.411c0,1.411-1.696,4.52-2.26,5.931c-0.564,1.413,0.564,3.108,0.564,3.108s2.827,1.412,1.696,3.953
		c-1.13,2.543,0.281,1.979,0,3.955c-0.283,1.977,0,1.129,1.127,2.259c1.132,1.13,3.111,3.111,4.804,2.826
		c1.697-0.284,2.259-1.977,3.672-1.13c1.412,0.847,4.236,0.283,5.083,1.413c0.85,1.128-5.365,3.953,5.368-0.847
		c10.734-4.804,11.861-5.933,13.274-7.629c1.417-1.694,3.111-3.388,4.238-4.519c1.13-1.129,0.285-0.847,3.672-3.389
		c3.389-2.541,3.389-1.412,6.499-6.215c3.107-4.8,5.365-6.495,5.932-7.343c0.565-0.849,1.694-1.13,1.977-4.522
		c0.282-3.388,2.541-6.496,2.541-7.625c0-1.128,0.847-2.822,0.565-4.801c-0.283-1.978,1.13-4.8-0.565-7.625
		c-1.696-2.826,0.847-3.953-1.696-5.087c-2.542-1.129-4.236-0.563-4.801-2.541c-0.566-1.978-2.826-1.695-3.673-7.061
		c-0.847-5.366-4.237-5.934-4.237-5.934s-3.389-1.411-2.542-1.975c0.849-0.566,1.13-4.521,0.849-5.651
		c-0.283-1.129-0.283-3.672-1.129-5.365c-0.847-1.696-1.413-3.954-2.26-5.933c-0.847-1.977-2.259-2.543-2.825-4.801
		c-0.566-2.259-1.413-3.109-1.694-3.672c-0.285-0.565-0.851-3.389-1.413-0.284c-0.565,3.107-1.697,9.038-1.697,9.038
		s-2.26,4.804-3.107,6.216c-0.847,1.41-1.694,5.083-3.106,4.8c-1.413-0.282-2.263,1.414-3.39,1.129
		c-1.13-0.283-2.825,0.284-3.672-0.563c-0.847-0.848-3.107-3.107-4.238-3.391c-1.129-0.281-1.976-2.54-2.824-2.54
		c-0.85,0-2.261-1.979-1.977-3.108c0.281-1.13,0.563-3.671,0.847-4.802c0.281-1.129,1.978-3.673,1.978-3.673s0-1.694-1.413-1.694
		c-1.412,0-1.696,0-4.803-0.284c-3.106-0.283-3.952-0.564-5.085-0.564c-1.127,0,1.132-0.565-1.976,0.282
		c-3.106,0.849-4.519,3.108-6.497,5.086c-1.974,1.977-0.281,1.411-1.974,1.977c-1.698,0.566-1.413-1.413-2.544,1.695
		c-1.131,3.107,0.566,3.953-0.285,4.519c-0.847,0.566-6.776-1.976-6.776-1.976s1.411-0.284,0.281-1.696
		c-1.128-1.413-2.259-3.388-3.952-2.541c-1.698,0.847-3.111,1.413-4.238,2.825c-1.131,1.412-1.131,2.541-1.978,3.67
		c-0.847,1.13-3.106,1.13-3.389,2.261c-0.283,1.13-0.283,3.954-1.129,4.236c-0.847,0.284-1.129-1.127-1.976-1.41
		c-0.847-0.283-0.566-2.543-1.13-1.13c-0.564,1.412-1.129,1.128-1.976,3.389c-0.85,2.26-1.131,4.238-1.978,4.52
		c-0.847,0.284,0,0.565-2.544,1.978c-2.54,1.411-3.106,1.411-6.776,3.107c-3.671,1.695-2.824,1.695-5.366,1.976
		c-2.542,0.284-3.109,1.131-4.803,1.414c-1.697,0.282-2.824,0.563-4.52,2.258c-1.694,1.696-3.106,2.259-4.236,2.543
		C846.39,366.667,845.254,367.798,845.254,367.798"/>
	<path fill="#54504D" d="M861.918,256.224c-1.128,1.697-4.8,6.779-6.212,7.063c-1.413,0.281-2.826,1.695-3.955,1.412
		c-1.13-0.284-3.672,0-4.52,3.672c-0.847,3.671-2.26,5.649-3.109,5.366c-0.847-0.283,1.412,5.366-3.389,3.108
		c-4.8-2.26-3.106,1.978-3.672,3.109c-0.564,1.128,0.847,4.236,1.13,5.366c0.285,1.129,1.129,3.107,2.26,4.8
		c1.13,1.695,1.977,3.672,3.954,3.11c1.978-0.568,8.19,0,8.19,0s2.263,0.847,3.673,0.847c1.412,0,1.696-0.565,2.542-0.565
		c0.845,0,2.541-2.826,2.26-3.107c-0.283-0.285-1.128-1.131,0.564-2.826c1.696-1.696,3.672-2.259,3.956-4.237
		c0.282-1.977-0.565-1.977,0.282-3.109c0.847-1.129,2.824-0.844,2.26-1.976c-0.566-1.13,0.564-0.847-0.566-3.109
		c-1.128-2.258-2.542-3.107-1.413-5.932c1.131-2.823,2.263-3.389,1.98-5.083c-0.284-1.697,1.411-2.261-0.566-4.238
		c-1.976-1.976-2.824-2.542-4.237-3.109L861.918,256.224z"/>
	<path fill="#54504D" d="M917.281,284.471c1.132-0.282,5.085-3.107,5.369,1.978c0.282,5.084,0.562,3.67,2.26,6.495
		c1.694,2.825,2.821,3.675,4.799,2.262c1.976-1.415,4.236-1.415,4.801-3.955c0.566-2.542,0.566-2.542,2.26-2.542
		c1.698,0,2.26-0.282,3.111,0.85c0.846,1.126,1.408-0.003,5.083,1.975c3.672,1.978,6.778,1.41,9.04,3.389
		c2.26,1.977,3.39,1.697,6.496,2.825c3.107,1.13,1.694-0.564,4.519,2.543c2.826,3.106,1.698,3.953,3.107,5.366
		c1.412,1.412,2.544-1.131,1.978,2.259c-0.566,3.389-4.519,0,1.413,4.8c5.931,4.804,6.779,5.652,8.754,7.063
		c1.979,1.413,3.391,3.108,1.698,3.108c-1.698,0-7.063,0-7.626-0.848c-0.566-0.847-3.107-1.413-4.804-3.39
		c-1.693-1.975-5.365-3.389-6.211-5.084c-0.849-1.696-1.979-2.26-3.39-2.26c-1.412,0-2.824,1.694-4.803,3.672
		c-1.978,1.977-1.127-1.128-3.672-0.282c-2.544,0.848-5.365-0.284-6.779-1.413c-1.413-1.13-1.128-2.824-3.387-1.977
		c-2.263,0.847-3.672,0.283-2.825-1.412c0.847-1.696,0.281-3.955,0.281-3.955s0.85-2.825-1.127-3.388
		c-1.978-0.564-1.978-2.542-3.955-3.109c-1.98-0.563-5.084-1.976-5.084-1.976s-0.283,0-1.131-0.283
		c-0.847-0.283-0.847-0.283-3.107-0.847c-2.259-0.566-3.956-0.002-5.084-1.413c-1.132-1.412-0.566-3.39-0.566-3.39
		s4.519,0.565,0-2.824l-4.519-3.389c0,0,0.562-0.283,0.281-0.848C914.176,283.905,917.281,284.471,917.281,284.471"/>
	<path fill="#54504D" d="M790.174,261.026c0,0,1.412,1.414,3.672,1.131c2.259-0.284,3.952,4.519,5.367,6.213
		c1.411,1.695,2.26,2.542,5.366,4.52c3.106,1.977,2.824-1.695,7.062,4.237c4.237,5.931,2.259,2.26,4.237,5.931
		c1.976,3.675,3.107,5.651,4.236,6.5c1.128,0.847,1.978,3.105,2.262,3.953c0.281,0.847,2.257,3.389,2.257,4.237
		c0,0.847,0.566,3.107-1.128,5.084c-1.695,1.977-3.108,2.26-3.108,2.26s-3.39-1.696-4.519-3.39
		c-1.131-1.694-2.542-3.107-4.521-6.495c-1.976-3.391-4.236-7.063-5.366-8.757c-1.129-1.697-2.825-3.392-3.672-5.085
		c-0.847-1.697-3.107-6.779-4.236-7.345c-1.13-0.566-1.413-2.259-3.391-4.237c-1.976-1.978-1.694-3.672-2.542-4.801
		c-0.847-1.13-2.823-3.675-2.823-3.675L790.174,261.026z"/>
	<path fill="#54504D" d="M231.907,481.35c-1.978-1.129-6.214-3.107-7.626-4.237c-1.412-1.129-5.649-7.346-5.649-7.346l-3.108-5.932
		c0,0-3.671-4.519-2.824-6.213c0.847-1.696,2.543-2.825,2.543-3.672c0-0.847,1.694-3.109,0.281-3.955
		c-1.412-0.848-1.412-1.129-2.26-3.671c-0.847-2.542-0.847-4.804-1.977-5.368c-1.131-0.563-1.978-4.236-3.107-4.519
		c-1.129-0.283-2.26-2.26-2.26-2.26l-1.696-22.88c0,0-0.566-10.45-1.129-12.711c-0.566-2.259,0.847-7.06-0.566-11.298
		c-1.412-4.237,0.284-9.321-0.565-11.016c-0.847-1.696,0.565-6.496-0.282-11.015c-0.847-4.519,3.389-10.168,0-11.863
		c-3.39-1.696-0.847-4.238-3.672-4.238c-2.824,0-4.801-1.413-7.344-3.388c-2.542-1.978-7.345-5.651-8.757-7.064
		c-1.412-1.41-5.932-5.084-7.344-6.213c-1.412-1.13-2.825-5.932-3.954-7.345c-1.129-1.411-1.694-5.647-3.39-8.19
		c-1.695-2.541-3.954-6.778-4.52-7.626c-0.565-0.847-6.779-8.191-6.779-8.191l0.565-4.519c0,0,4.236-2.543,3.672-3.39
		c-0.565-0.848,0.283-1.696-1.696-3.389c-1.978-1.697-1.695-4.804,0-6.215c1.696-1.414,4.237-5.933,4.237-5.933l4.237-7.06
		c0,0,3.39-3.675,3.39-6.216c0-2.541,4.802-4.235,1.977-6.496c-2.825-2.261-1.412-4.238-2.26-5.933
		c-0.849-1.694-0.283-2.824,2.26-4.519c2.542-1.695,7.061-7.909,7.061-7.909s3.39-0.848,4.237-0.848s2.26-9.04,4.803-3.108
		c2.542,5.932,3.389,2.825,2.542,7.061c-0.848,4.237,1.13,3.391,2.259,2.262c1.129-1.132-0.566,0.847,1.694-4.24
		c2.259-5.083,1.413-6.778,2.825-5.364c1.412,1.413,1.977,1.695,4.519,2.542c2.541,0.847,3.39,0.564,4.236,2.259
		c0.847,1.695,0.566-0.565,5.367,0.284c4.801,0.848,11.58-1.696,10.733,1.128c-0.847,2.825-2.542-0.283,1.412,2.825
		s4.52,3.672,6.779,4.238c2.259,0.564,4.237,0.282,7.628,3.671c3.389,3.389,4.236,3.672,5.084,5.365
		c0.847,1.697,2.258,0.566,3.671,2.26c1.412,1.697,3.39,1.697,5.367,1.697c1.976,0,0-1.697,3.107,0.565
		c3.108,2.259,5.367,2.54,6.779,7.06c1.412,4.523,4.237,4.238,1.976,8.758c-2.258,4.521-6.777,6.497-4.801,6.215
		c1.977-0.284,5.65-1.979,6.779-1.696c1.13,0.281,1.694-0.847,3.39,0c1.695,0.847,1.978-1.129,1.695,0.847
		c-0.283,1.978-0.283,0-0.283,1.978c0,1.977-0.565-1.978,2.824-1.129c3.39,0.847,1.412-1.697,5.367,1.976
		c3.955,3.673,3.955,2.544,5.366,4.521c1.413,1.975,2.825-1.129,3.673-0.283c0.848,0.846,3.389,0.281,5.932,0.847
		c2.542,0.564,0.847-1.694,4.803,0.847c3.953,2.542,7.908,1.695,8.755,3.955c0.847,2.259,3.109,1.411,4.237,2.824
		c1.128,1.414,1.694-0.565,2.825,1.414c1.129,1.975,4.52,1.41,3.954,3.387c-0.566,1.979,0.846,0.848,0.281,3.672
		c-0.563,2.827-2.542,7.346-4.235,8.474c-1.696,1.131-1.694,2.543-2.825,3.954c-1.13,1.415-0.847-1.411-2.26,2.543
		c-1.412,3.955-1.13,4.52-2.259,8.191c-1.13,3.671-0.282,0-1.13,3.672c-0.847,3.672-0.282,5.932-1.129,10.17
		c-0.847,4.235-0.565,4.237-1.129,7.344c-0.565,3.107,1.411-1.411-1.131,5.083c-2.541,6.499-2.824,6.214-3.671,9.04
		c-0.848,2.826,0.283,0.564-2.825,2.26c-3.107,1.697-1.411,1.129-5.085,2.26c-3.67,1.129-8.191,2.261-9.602,2.542
		c-1.412,0.282-7.062,1.977-5.367,5.365c1.696,3.391,1.696,3.956,0,8.194c-1.695,4.235-4.236,5.65-4.236,7.625
		c0,1.976-1.131,3.953-1.412,5.366c-0.284,1.413,2.541-1.413-0.847,2.825c-3.39,4.236-3.672,3.107-4.803,5.649
		c-1.129,2.542,0,0.564-1.129,2.542c-1.13,1.976-3.954,2.823-3.954,2.823s0.281,1.413-0.849,0.849
		c-1.13-0.564-0.847,0.282-5.085-0.849c-4.236-1.129-4.801-3.951-5.366-1.976c-0.565,1.976,0.282,3.108,2.825,5.085
		c2.541,1.978,6.779,2.541,5.648,4.52c-1.129,1.978-1.129,1.978-1.976,3.107c-0.848,1.131,1.129,0.283-0.848,1.131
		c-1.977,0.847-3.108,4.52-3.955,4.52s-1.413,1.412-2.542,0.847c-1.13-0.566-3.953-2.542-4.519-1.413
		c-0.565,1.128-1.696-1.413-1.413,2.541c0.283,3.955,0.848,6.215-0.565,7.063c-1.412,0.847-4.803,0-4.803,0l-0.564-1.413
		l-1.977,0.565c0,0-0.847,3.389,0.565,3.954c1.412,0.565,1.129,1.128,2.541,2.824c1.413,1.695,0.566,4.802,0.566,4.802
		s0,0.849-1.412,2.261c-1.412,1.411-1.978,2.542-2.26,3.389c-0.283,0.847-1.978,4.52,0.565,4.237c2.541-0.284,4.52-1.696,4.52,2.825
		c0,4.519,1.13,3.391-0.282,6.496c-1.413,3.108-2.543,3.39-2.825,6.214c-0.281,2.825,0.284,3.107,0.848,4.802
		c0.565,1.696,1.978,0.847,0.565,1.696C236.144,482.195,231.907,481.35,231.907,481.35"/>
	<path fill="#54504D" d="M167.906,251.423l-1.977-2.824c0,0-0.847-1.696-2.26-1.977c-1.413-0.281-4.52-3.955-4.52-3.955
		s-1.412-1.129-1.412-3.106c0-1.977-1.13-5.083-0.283-8.473c0.848-3.388,1.13-7.626,0.848-8.757
		c-0.284-1.129,1.412-1.412-0.565-2.542s-5.932-1.412-8.474-1.412c-2.542,0-5.65,0.848-6.215,1.129
		c-0.564,0.283,3.107-8.473,3.672-9.885s3.107-7.627,3.107-8.473c0-0.849,0.848-1.131-0.847-2.259
		c-1.694-1.131-4.519-1.696-6.214-0.848c-1.694,0.848-1.412-1.13-2.824,2.258c-1.412,3.391-2.825,7.063-4.52,7.628
		c-1.694,0.566-5.084,2.26-5.084,2.26s-4.236-0.282-5.649-0.565c-1.412-0.282-7.344-3.389-8.474-5.366
		c-1.129-1.978-1.694-6.215-1.694-8.191c0-1.977,3.106-7.908,2.824-9.321c-0.283-1.412,3.108-7.062,2.825-7.91
		c-0.284-0.847,0.564-3.672,1.411-4.802c0.847-1.129,5.085-2.542,6.215-3.672c1.129-1.13,3.107-2.541,5.084-3.107
		c1.976-0.566,3.673-1.129,5.085-1.129c1.411,0,5.083-3.107,5.648,0c0.566,3.106,3.108,1.976,4.52,2.259s1.696,1.695,3.955-1.977
		c2.26-3.673,4.519-4.802,4.519-3.955c0,0.848,3.672-0.281,4.236,0.566c0.565,0.847,1.696-0.566,3.672,1.129
		c1.978,1.696,4.802,1.978,4.519,2.824c-0.282,0.847,1.13,0.847,1.13,1.695c0,0.847,1.13-1.978,1.13,3.106
		c0,5.085,1.412,8.192,1.412,8.192s1.977,4.238,2.824,3.39c0.847-0.847,2.541-3.106,2.541-3.106s2.825-1.696,0.848-7.628
		c-1.977-5.93-0.564-7.626-1.129-9.604c-0.566-1.977-0.566-3.108,2.823-5.649c3.39-2.542,11.581-8.191,13.559-9.321
		c1.976-1.129,6.495-4.236,6.495-4.236s1.695-0.847,1.978-3.108c0.282-2.259,5.649-6.214,5.932-7.344
		c0.284-1.129,3.956-3.953,3.956-3.953s3.953-2.261,3.67-3.671c-0.282-1.412,5.085-3.954,5.933-3.954
		c0.847,0,5.367,1.411,5.367-1.131c0-2.542,0-3.108,2.825-5.367c2.823-2.258,6.495-5.649,7.908-5.649
		c1.412,0,6.215-2.54,8.191-3.106c1.978-0.566,8.193-3.391,2.543,0c-5.65,3.388-1.978,1.412-3.107,4.236s-1.978,6.497,3.389,2.259
		c5.368-4.236,5.084-5.085,7.062-5.366c1.977-0.282,0.564,0.847,4.801-0.566c4.238-1.412,4.52-1.976,4.52-1.976
		s1.978-1.696,0.847-2.542c-1.129-0.848,1.131-1.977-3.107-0.283c-4.236,1.695-3.954,1.978-6.779,1.129
		c-2.824-0.847-7.061-0.566-3.954-3.391c3.107-2.823,7.061-3.671,4.519-4.801c-2.541-1.129-9.038,0.284-9.885,0.565
		c-0.849,0.282-2.825-0.283-4.521,0c-1.694,0.282-1.129-2.258,0-2.824c1.131-0.566,4.803-2.261,9.322-3.391
		c4.519-1.129,15.536-1.411,18.077-1.411c2.542,0,5.931,0.566,7.909-0.848c1.976-1.411,5.932-3.67,6.497-4.802
		c0.566-1.13,2.825-2.824,2.825-2.824s2.541-2.542,1.129-3.672c-1.412-1.129-2.825-3.672-3.954-3.107
		c-1.13,0.565-0.281,3.956-2.541,0.282c-2.261-3.67-1.978-4.236-3.108-5.083c-1.129-0.847-2.26-0.284-1.411-4.237
		c0.847-3.954,0.564-5.65,0.564-5.65s0.847-3.388,0-3.67c-0.848-0.284-1.412-1.13-2.823-0.284c-1.413,0.847-9.322,4.803-11.016,5.65
		c-1.696,0.847-3.956-3.39-3.109-5.366c0.849-1.979,0.283-0.849-0.847-3.672c-1.129-2.825-5.648-3.391-7.344-3.391
		c-1.695,0-5.648-2.543-6.779-0.847c-1.129,1.694-7.06,7.06-8.192,7.626c-1.129,0.566-2.824-4.801-3.671,3.954
		c-0.848,8.758,3.108,11.3-1.412,11.864c-4.519,0.565-8.474,3.106-8.474,3.106s-3.671,0.284-3.671,2.543
		c0,2.261-1.412,7.626-3.108,8.191c-1.694,0.566-5.932-0.281-7.344-1.977c-1.412-1.695,0.282-7.908,0.282-7.908l2.543-2.543
		c0,0-18.078-2.823-17.797-3.954c0.284-1.129-5.366-3.106-5.93-4.801c-0.565-1.696-0.849-5.368-0.283-6.78
		c0.565-1.411,8.191-8.191,12.146-9.602c3.954-1.413,10.733-4.519,12.711-5.085c1.978-0.565,5.366-0.283,6.497-1.694
		c1.129-1.414,1.411-3.955,1.411-3.955s-0.564-3.955,0.565-3.391c1.13,0.566,3.107,1.413,3.39,2.26
		c0.283,0.848,0.283,2.825,2.26,0.564c1.978-2.259,4.52-3.107,6.779-4.235c2.26-1.131,5.648-0.848,7.627-1.977
		c1.977-1.129,5.367-2.26,5.649-5.085c0.282-2.824-0.847-1.976-2.26-2.26c-1.412-0.281,0.565,0.284-4.237,2.542
		c-4.802,2.259-3.389,0.565-6.779,2.259c-3.39,1.696-3.673,1.978-3.954,0.566c-0.284-1.413,0.564-3.672,0.564-3.672
		s0.284-0.283-1.694-0.847c-1.978-0.564-1.978,0.283-2.26-2.259c-0.282-2.542,1.412-6.214-1.412-5.085
		c-2.825,1.13-5.366-0.847-7.344,4.802c-1.977,5.648-8.757,11.582-10.452,10.168c-1.694-1.411-1.976-1.695-3.39-1.695
		c-1.413,0-3.389-1.694-5.932-1.976c-2.542-0.283-10.17-0.283-12.145,0c-1.978,0.283-4.237-1.13-5.933,0.566
		c-1.694,1.694-4.236,3.954-4.236,4.802c0,0.847-2.542-3.108-3.389-2.825c-0.847,0.283-3.109-1.129-5.649-1.129
		c-2.542,0-4.238-1.413-5.083-1.413c-0.847,0,0.845-2.26,0-2.543c-0.847-0.281-19.21-0.847-19.21-0.847s-5.93-2.259-8.189-1.976
		c-2.261,0.282-8.474,0.563-13.278,1.411c-4.802,0.848-11.864,3.672-14.123,3.955c-2.26,0.283-7.343,0.283-8.191-1.13
		c-0.848-1.411,0.283-1.129-0.848-1.411c-1.129-0.282-0.281-0.848-2.824-2.824c-2.542-1.978,1.131-3.672-3.954-3.672
		c-5.084,0-8.191-0.284-12.71,0c-4.52,0.282-13.84,2.541-14.97,2.259c-1.129-0.282-10.169,1.413-11.582,0.566
		c-1.412-0.848-8.474,3.106-9.885,2.823c-1.412-0.282-6.779,0.284-8.191,1.131c-1.413,0.848-8.192,2.541-5.932,3.954
		c2.259,1.412,1.977,2.824,2.259,3.672c0.284,0.847-2.259,2.824-2.259,2.824s-0.566,0-3.672-1.129
		c-3.107-1.131-6.497-1.695-7.91-0.848c-1.411,0.848-3.954,2.544-3.389,3.674c0.566,1.129,4.519,3.672,5.085,2.823
		c0.564-0.847,1.978-2.541,3.672-2.259c1.695,0.284,4.238-1.129,1.977,1.696c-2.26,2.823-4.237,4.236-5.649,4.52
		c-1.412,0.281-4.802,0.564-7.909,0.847c-3.108,0.284-2.826-1.129-5.65,1.696c-2.823,2.823-3.954,1.129-4.519,4.236
		c-0.564,3.106-1.129,3.106,0,3.955c1.13,0.847-2.26,1.129,0.283,1.976c2.541,0.848,5.648,1.695,5.366,2.541
		c-0.284,0.849,2.825-1.128,1.129,1.13c-1.695,2.261-2.823,4.236,0.565,1.978c3.39-2.259,5.366-0.566,8.191-1.978
		c2.825-1.412,5.65-1.694,7.344-2.824c1.695-1.131,2.542-2.823,5.085-3.673c2.542-0.847,0.847,0.284,1.129,1.695
		c0.283,1.412,0,1.695,1.696,0.564c1.694-1.13,1.694-0.281,3.954-1.694c2.259-1.412,4.801-2.825,6.497-1.978
		c1.694,0.848,2.259,0.848,3.389,0.848c1.13,0-1.411-0.283,1.13,0c2.542,0.281-1.13-0.848,7.344,1.13
		c8.474,1.976,10.734,0.564,11.298,3.672c0.566,3.107,1.695-0.284,3.107,1.694c1.412,1.976,2.26,0.283,3.107,3.672
		c0.847,3.391,0,12.711-0.564,13.84c-0.565,1.13-0.847,1.13-0.565,3.672c0.282,2.542,3.672,14.689,2.542,15.535
		c-1.129,0.846-3.672,1.13-3.672,1.13l-1.411,5.083c0,0-2.259,4.237-4.237,6.497c-1.978,2.259-4.519,5.085-5.932,7.06
		c-1.412,1.978-2.543,5.369-4.519,7.346c-1.977,1.976-3.672,1.129-3.107,5.366c0.564,4.236,0,8.755,0.564,11.864
		c0.566,3.107,1.978,7.344,3.108,9.039c1.129,1.694,1.977,1.694,3.954,3.106c1.978,1.412,4.52,3.109,4.237,4.52
		c-0.283,1.412,0.282,10.17,0.282,10.17s1.695,2.824,1.976,5.931c0.284,3.109,2.261,6.215,2.261,6.215l1.695,3.673
		c0,0,0.847,0.283,1.978,2.541c1.129,2.26,1.129,2.26,1.412,3.388c0.283,1.132,0.283,0.849,0.283,1.132
		c0,0.281-0.283-4.802-0.848-6.215c-0.565-1.412-0.565-3.106-1.13-4.802c-0.564-1.695,0.283-3.673-1.411-6.214
		c-1.694-2.541-1.694-2.825-2.542-5.368c-0.847-2.541-1.977-5.366-0.847-5.932c1.13-0.563,1.977-4.235,4.237,0
		c2.259,4.237,2.542,3.109,2.825,6.498c0.281,3.39,1.129,4.521,1.976,5.931c0.847,1.412,2.824,6.216,3.955,8.191
		c1.129,1.978,0-1.129,2.541,2.825c2.542,3.954,2.826,4.801,4.238,7.909c1.412,3.107,2.26,3.107,3.107,5.366
		c0.847,2.261,0.282,1.695-0.284,4.236c-0.564,2.542,0.565,5.368,0.565,5.368s3.954,1.412,4.237,2.259
		c0.282,0.847,4.236,2.259,4.802,3.389c0.565,1.131,4.237,2.541,4.237,2.541s3.107,1.978,4.236,2.543
		c1.13,0.565,4.521,1.131,4.521,1.131s2.259,0.566,3.106,0.847c0.847,0.282,3.39,0.282,3.39,0.282s2.26-1.694,3.107-1.129
		c0.847,0.563,2.825-1.131,3.672,0.281c0.847,1.413,2.542,1.413,3.389,2.544c0.847,1.129,1.694,1.129,3.108,2.541
		c1.413,1.412,2.824,1.129,4.236,2.259c1.412,1.129,2.541,1.129,4.237,1.129c1.694,0,1.694,0,2.825,0.284
		c1.128,0.282,1.694-0.849,2.823,0.566c1.13,1.411,1.977,2.259,2.824,3.67c0.847,1.412,2.825,1.412,3.107,3.672
		c0.282,2.259,0.847,1.979,0.847,3.955c0,1.977,1.13,2.824,1.978,3.39c0.846,0.564,3.953,3.388,3.953,3.388l4.237,0.848l3.389,2.542
		L167.906,251.423z"/>
</g>
</svg>
