<?xml version="1.0" encoding="utf-8"?>
<!-- Generator: Adobe Illustrator 17.0.0, SVG Export Plug-In . SVG Version: 6.00 Build 0)  -->
<!DOCTYPE svg PUBLIC "-//W3C//DTD SVG 1.1//EN" "http://www.w3.org/Graphics/SVG/1.1/DTD/svg11.dtd">
<svg version="1.1" id="Layer_1" xmlns="http://www.w3.org/2000/svg" xmlns:xlink="http://www.w3.org/1999/xlink" x="0px" y="0px"
	 width="79.516px" height="45.133px" viewBox="0 0 79.516 45.133" enable-background="new 0 0 79.516 45.133" xml:space="preserve">
<g>
	<defs>
		<rect id="SVGID_1_" y="0" width="79.516" height="45.133"/>
	</defs>
	<clipPath id="SVGID_2_">
		<use xlink:href="#SVGID_1_"  overflow="visible"/>
	</clipPath>
	<path clip-path="url(#SVGID_2_)" fill="#4C4845" d="M79.502,28.265c-0.239-1.954-2.464-19.301-6.64-24.763
		c-0.259-0.333-0.631-0.561-1.049-0.628c-1.141-0.187-2.372-0.268-3.655-0.228c-5.085,0.158-9.821,2.065-11.363,2.749
		c-0.017-0.005-0.032-0.014-0.049-0.018C56.705,5.365,52.639,4.296,46.078,1.6c-4.934-2.031-9.698-1.008-13.359,1.073
		C29.03,2.439,21.805,2.449,18.956,2.592C14.541,1.286,4.718,0.066,4.294,0.011c-0.899-0.104-1.71,0.511-1.842,1.402
		c-0.11,0.73-2.695,18.121-2.434,30.177c0.017,0.769,0.562,1.426,1.321,1.586c1.066,0.219,2.589,0.301,4.658,0.237
		c3.327-0.103,6.826-0.54,6.978-0.562c0.651-0.08,1.192-0.535,1.381-1.165c0.054-0.176,0.389-1.298,0.873-3.013l3.046,2.407
		c1.518,1.191,14.863,11.663,16.687,12.782c1.073,0.661,2.886,1.325,4.767,1.267c0.275-0.009,0.55-0.031,0.821-0.069
		c1.249-0.185,2.278-0.718,3.013-1.534c1.659,0.695,3.625,0.724,5.332,0.004c1.107-0.47,1.968-1.21,2.517-2.127
		c1.33,0.265,2.84,0.042,4.192-0.681c1.303-0.701,2.226-1.769,2.656-2.987c1.142,0.011,2.27-0.449,3.21-1.305
		c1.632-1.483,2.162-3.663,1.493-5.772l1.589-1.286c0.181,0.222,0.413,0.4,0.689,0.504c1.357,0.509,3.75,0.707,7.319,0.596
		c2.875-0.088,5.46-0.348,5.463-0.352c0.443-0.046,0.852-0.265,1.133-0.619C79.431,29.157,79.559,28.705,79.502,28.265
		 M44.818,4.667c6.796,2.791,10.923,3.875,11.098,3.919c0.012,0.003,0.024,0.003,0.037,0.006c1.902,3.262,5.463,12.134,7.372,17.505
		l-2.019,1.63c-3.99-5.319-13.949-13.735-19.374-17.114c-0.447-0.278-1.006-0.327-1.492-0.136l-0.846,0.338
		c-1.498,0.598-1.498,0.598-2.599,0.738l-0.609,0.079c-0.489,0.065-0.926,0.344-1.188,0.764c-2.047,3.27-3.821,5.148-6.324,4.406
		c-0.459-0.136-0.689-0.381-0.817-0.865c-0.529-1.979,1.194-5.95,2.968-7.807c0.819-0.854,1.838-1.678,2.997-2.377
		c0.005-0.003,0.009-0.005,0.014-0.008C36.978,3.974,40.846,3.037,44.818,4.667 M11.486,29.684
		c-1.953,0.203-6.362,0.496-8.165,0.389C3.293,20.523,4.898,7.93,5.505,3.513c2.701,0.368,8.156,1.154,11.492,1.98
		C16.235,12.937,12.577,25.915,11.486,29.684 M59.243,33.983c-0.364,0.333-0.964,0.613-1.456,0.318
		c-1.482-1.115-8.627-7.352-11.281-9.684c-0.686-0.603-1.736-0.543-2.342,0.149c-0.606,0.693-0.541,1.74,0.149,2.343
		c0.359,0.318,8.126,7.133,10.872,9.361c-0.156,0.686-0.75,1.123-1.149,1.336c-0.901,0.483-2.022,0.531-2.51,0.111
		c-0.019-0.017-0.044-0.026-0.064-0.042c-0.014-0.011-0.025-0.026-0.041-0.037c-2.251-1.697-8.623-7.096-9.418-7.908
		c-0.641-0.658-1.69-0.666-2.348-0.021c-0.654,0.635-0.668,1.687-0.027,2.342c0.877,0.892,6.105,5.331,8.878,7.526
		c-0.233,0.332-0.576,0.561-0.887,0.695c-0.724,0.308-1.724,0.371-2.604,0.057c-0.131-0.368-0.357-0.706-0.684-0.965
		c-2.094-1.658-5.02-4.405-6.993-6.393c-0.812-0.813-2.235-0.817-3.051-0.009c-0.41,0.405-0.637,0.947-0.64,1.526
		c-0.002,0.578,0.22,1.121,0.626,1.53c1.653,1.663,3.944,3.828,5.93,5.53c-0.048,0.01-0.091,0.022-0.143,0.031
		c-1.117,0.164-2.548-0.247-3.36-0.746c-1.123-0.692-9.086-6.843-16.371-12.566l-4.14-3.273c1.526-5.662,3.53-13.797,4.101-19.332
		c2.138-0.062,5.442-0.075,8.336-0.02c-2.198,2.302-4.726,7.379-3.776,10.951c0.425,1.597,1.519,2.729,3.084,3.191
		c4.939,1.464,8.086-2.717,9.657-5.156c1.303-0.17,1.493-0.232,3.234-0.927l0.053-0.018c6.34,4.146,16.716,13.399,18.725,17.267
		C60.253,32.408,59.847,33.436,59.243,33.983 M72.46,27.159c-2.916,0.09-4.497-0.053-5.332-0.207
		c-1.475-4.429-5.269-14.271-7.751-19.021c1.946-0.751,5.368-1.856,8.894-1.965c0.812-0.026,1.59,0.006,2.326,0.09
		c2.599,4.139,4.585,15.189,5.389,20.914C75.036,27.036,73.78,27.118,72.46,27.159"/>
</g>
</svg>
