<?xml version="1.0" encoding="utf-8"?>
<!-- Generator: Adobe Illustrator 17.0.0, SVG Export Plug-In . SVG Version: 6.00 Build 0)  -->
<!DOCTYPE svg PUBLIC "-//W3C//DTD SVG 1.1//EN" "http://www.w3.org/Graphics/SVG/1.1/DTD/svg11.dtd">
<svg version="1.1" id="Layer_1" xmlns="http://www.w3.org/2000/svg" xmlns:xlink="http://www.w3.org/1999/xlink" x="0px" y="0px"
	 width="63.546px" height="63.546px" viewBox="0 0 63.546 63.546" enable-background="new 0 0 63.546 63.546" xml:space="preserve">
<g>
	<defs>
		<rect id="SVGID_1_" y="0" width="63.546" height="63.546"/>
	</defs>
	<clipPath id="SVGID_2_">
		<use xlink:href="#SVGID_1_"  overflow="visible"/>
	</clipPath>
	<path clip-path="url(#SVGID_2_)" fill="#4C4845" d="M31.772,0C14.253,0,0,14.253,0,31.773s14.253,31.773,31.772,31.773
		c17.52,0,31.774-14.253,31.774-31.773S49.292,0,31.772,0 M17.614,56.23v-8.429c0-2.992,2.339-5.002,5.82-5.002h2.274
		c0.587,0,1.132-0.288,1.459-0.772l1.469-2.17c0.971,0.437,2.022,0.694,3.136,0.694c1.14,0,2.213-0.266,3.202-0.721l1.537,2.212
		c0.328,0.476,0.869,0.76,1.449,0.76h2.274c3.407,0,5.696,2.01,5.696,5.002v8.426c-4.167,2.421-9.001,3.816-14.158,3.816
		S21.781,58.651,17.614,56.23 M39.39,25.395c0.175,0.077,0.351,0.19,0.476,0.282v2.319c-0.119,0.029-0.294,0.054-0.516,0.054
		c-0.969,0-1.758,0.785-1.758,1.75c0,3.265-2.686,7.253-5.821,7.253c-0.921,0-1.801-0.35-2.587-0.92
		c-0.037-0.028-0.069-0.061-0.108-0.087c-0.019-0.012-0.04-0.019-0.06-0.031c-1.803-1.4-3.066-3.977-3.066-6.215
		c0-0.965-0.788-1.75-1.758-1.75c-0.222,0-0.396-0.025-0.516-0.054V25.68c0.12-0.089,0.291-0.2,0.482-0.286
		c0.63-0.284,1.036-0.91,1.036-1.596v-3.001c0-1.416,0-2.752,5.063-2.752c0.373,0,0.745-0.122,1.051-0.348
		c1.688-1.255,3.293-1.519,4.343-1.519c1.663,0,3.142,0.672,3.595,1.635c0.258,0.546,0.095,1.171-0.487,1.86
		c-0.263,0.314-0.409,0.713-0.409,1.122v3.001C38.35,24.486,38.759,25.114,39.39,25.395 M49.446,53.818v-6.011
		c0-5.006-3.788-8.503-9.212-8.503h-1.351l-1.067-1.534c1.676-1.748,2.819-4.108,3.171-6.457c1.646-0.523,2.393-1.828,2.393-3.016
		v-3.002c0-0.931-0.534-1.806-1.516-2.505v-1.409c1.137-1.635,1.339-3.421,0.562-5.064c-1.048-2.211-3.709-3.64-6.776-3.64
		c-1.464,0-3.664,0.33-5.962,1.871c-5.536,0.122-8.01,2.057-8.01,6.246v1.997c-0.982,0.703-1.515,1.577-1.515,2.504v3.002
		c0,1.188,0.746,2.493,2.39,3.016c0.359,2.371,1.523,4.752,3.226,6.505l-1.004,1.483h-1.339c-5.41,0-9.337,3.576-9.337,8.503v6.014
		C7.643,48.632,3.5,40.68,3.5,31.773C3.5,16.183,16.182,3.5,31.772,3.5s28.274,12.683,28.274,28.273
		C60.046,40.679,55.902,48.632,49.446,53.818"/>
</g>
</svg>
