<?xml version="1.0" encoding="utf-8"?>
<!-- Generator: Adobe Illustrator 17.0.0, SVG Export Plug-In . SVG Version: 6.00 Build 0)  -->
<!DOCTYPE svg PUBLIC "-//W3C//DTD SVG 1.1//EN" "http://www.w3.org/Graphics/SVG/1.1/DTD/svg11.dtd">
<svg version="1.1" id="Layer_1" xmlns="http://www.w3.org/2000/svg" xmlns:xlink="http://www.w3.org/1999/xlink" x="0px" y="0px"
	 width="54.596px" height="65.804px" viewBox="0 0 54.596 65.804" enable-background="new 0 0 54.596 65.804" xml:space="preserve">
<g>
	<defs>
		<rect id="SVGID_1_" y="0" width="54.596" height="65.804"/>
	</defs>
	<clipPath id="SVGID_2_">
		<use xlink:href="#SVGID_1_"  overflow="visible"/>
	</clipPath>
	<path clip-path="url(#SVGID_2_)" fill="#4C4845" d="M8.952,22.918c0,12.478,10.185,22.629,22.706,22.629
		c12.477,0,22.629-10.151,22.629-22.629S44.135,0.288,31.658,0.288c-0.779,0-1.549,0.04-2.307,0.117l-0.007-0.016l-0.02,0.019
		C17.896,1.576,8.952,11.225,8.952,22.918 M13.043,22.918c0-4.286,1.471-8.226,3.914-11.376c0.178,0.02,0.36,0.014,0.541-0.032
		c0.789-0.203,2.596-0.545,4.369-0.545c1.471,0,3.336,0.234,3.858,1.347c0.106,0.225,0.091,0.342-0.117,0.953
		c-0.536,1.562-0.833,3.284,1.871,5.621c0.352,0.304,0.352,0.304-0.052,1.232c-0.449,1.037-1.13,2.603-0.629,4.75
		c0.896,3.838,2.094,5.908,3.771,6.513c0.963,0.349,2.006,0.161,2.943-0.549c0.949-0.72,1.512-1.561,2.015-2.314
		c0.817-1.226,1.218-1.774,3.048-1.622c1.542,0.131,2.603-0.35,3.35-0.694c0.274-0.126,0.509-0.234,0.613-0.234
		c0.092,0,0.294,0.174,0.467,0.34c0.144,0.732-0.285,3.542-0.476,4.795c-0.568,3.696-0.777,5.371,0.2,6.356
		c0.042,0.043,0.091,0.075,0.137,0.114c-3.117,2.377-6.994,3.806-11.208,3.806C21.395,41.379,13.043,33.097,13.043,22.918
		 M50.196,22.841c0,4.849-1.886,9.255-4.944,12.561c-0.03-0.033-0.048-0.074-0.081-0.104c0.007-0.841,0.268-2.545,0.448-3.722
		c0.618-4.04,0.886-6.201-0.266-7.345c-0.957-0.95-1.846-1.393-2.796-1.393c-0.663,0-1.255,0.211-1.938,0.527
		c-0.565,0.259-1.055,0.477-1.783,0.418c-3.723-0.316-4.98,1.613-5.912,3.008c-0.411,0.616-0.766,1.147-1.299,1.551
		c-0.024,0.019-0.044,0.033-0.061,0.045c-0.243-0.215-0.992-1.098-1.723-4.229c-0.266-1.141,0.067-1.909,0.452-2.798
		c0.495-1.134,1.321-3.031-0.77-4.838c-1.334-1.153-1.232-1.449-0.961-2.244c0.259-0.752,0.65-1.888-0.007-3.291
		c-0.97-2.068-3.292-3.161-6.717-3.161c-0.368,0-0.729,0.016-1.084,0.038c1.866-1.356,3.989-2.368,6.286-2.957
		c0.118,1.187,0.578,2.635,2.71,3.234c1.698,0.476,1.732,0.789,1.823,1.623c0.086,0.791,0.216,1.986,1.407,2.976
		c0.88,0.731,1.96,1.102,3.21,1.102h0.001c3.689,0,7.781-3.223,8.564-3.868c0.043-0.035,0.077-0.076,0.114-0.115
		C48.16,13.206,50.196,17.788,50.196,22.841 M42.458,7.805c-1.559,1.215-4.374,2.909-6.257,2.909c-0.519,0-0.919-0.124-1.225-0.378
		c-0.19-0.158-0.226-0.269-0.298-0.911c-0.178-1.642-0.641-3.327-4.084-4.293c-0.38-0.106-0.436-0.128-0.462-0.752
		c0.504-0.041,1.011-0.077,1.526-0.077C35.689,4.303,39.413,5.611,42.458,7.805"/>
	<path clip-path="url(#SVGID_2_)" fill="#4C4845" d="M33.403,54.5c7.912-0.461,15.026-3.637,20.575-9.186
		c0.823-0.824,0.823-2.113,0-2.937c-0.792-0.791-2.131-0.794-2.852-0.008c-5.265,5.188-12.175,8.039-19.468,8.039
		c-15.201,0-27.567-12.332-27.567-27.491c0-7.37,2.852-14.28,8.031-19.459c0.408-0.409,0.627-0.942,0.615-1.502
		c-0.012-0.522-0.228-1.003-0.607-1.351C11.324-0.2,9.991-0.198,9.269,0.59C3.289,6.495,0,14.421,0,22.917
		c0,16.225,12.672,30.064,28.849,31.507l0.228,0.02v7.268h-9.586c-1.166,0-2.045,0.88-2.045,2.046s0.879,2.046,2.045,2.046h23.033
		c1.166,0,2.045-0.88,2.045-2.046s-0.879-2.046-2.045-2.046h-9.356v-7.198L33.403,54.5z"/>
</g>
</svg>
