<?xml version="1.0" encoding="utf-8"?>
<!-- Generator: Adobe Illustrator 17.0.0, SVG Export Plug-In . SVG Version: 6.00 Build 0)  -->
<!DOCTYPE svg PUBLIC "-//W3C//DTD SVG 1.1//EN" "http://www.w3.org/Graphics/SVG/1.1/DTD/svg11.dtd">
<svg version="1.1" id="Layer_1" xmlns="http://www.w3.org/2000/svg" xmlns:xlink="http://www.w3.org/1999/xlink" x="0px" y="0px"
	 width="982.724px" height="481.725px" viewBox="0 0 982.724 481.725" enable-background="new 0 0 982.724 481.725"
	 xml:space="preserve">
<g>
	<path fill="#C9AA5D" d="M258.566,334.738c0,2.711-2.198,4.909-4.909,4.909c-2.712,0-4.91-2.198-4.91-4.909s2.198-4.909,4.91-4.909
		C256.368,329.829,258.566,332.027,258.566,334.738"/>
	<path fill="#C9AA5D" d="M301.504,357.82c0,2.711-2.198,4.909-4.909,4.909c-2.712,0-4.91-2.198-4.91-4.909s2.198-4.909,4.91-4.909
		C299.306,352.911,301.504,355.109,301.504,357.82"/>
	<path fill="#C9AA5D" d="M235.454,321.556c0,2.711-2.198,4.909-4.909,4.909c-2.712,0-4.91-2.198-4.91-4.909
		c0-2.711,2.198-4.909,4.91-4.909C233.256,316.647,235.454,318.845,235.454,321.556"/>
	<path fill="#C9AA5D" d="M278.204,321.556c0,2.711-2.198,4.909-4.909,4.909c-2.712,0-4.91-2.198-4.91-4.909
		c0-2.711,2.198-4.909,4.91-4.909C276.006,316.647,278.204,318.845,278.204,321.556"/>
	<path fill="#C9AA5D" d="M245.273,295.437c0,2.711-2.198,4.909-4.909,4.909c-2.712,0-4.91-2.198-4.91-4.909s2.198-4.909,4.91-4.909
		C243.075,290.528,245.273,292.726,245.273,295.437"/>
	<path fill="#C9AA5D" d="M211.051,110.884c0,2.711-2.198,4.909-4.909,4.909c-2.712,0-4.91-2.198-4.91-4.909
		c0-2.711,2.198-4.909,4.91-4.909C208.853,105.975,211.051,108.173,211.051,110.884"/>
	<path fill="#C9AA5D" d="M492.542,91.065c0,2.711-2.198,4.909-4.909,4.909c-2.712,0-4.91-2.198-4.91-4.909
		c0-2.711,2.198-4.909,4.91-4.909C490.344,86.156,492.542,88.354,492.542,91.065"/>
	<path fill="#C9AA5D" d="M501.294,114.974c0,2.711-2.198,4.909-4.909,4.909c-2.712,0-4.91-2.198-4.91-4.909
		c0-2.711,2.198-4.909,4.91-4.909C499.096,110.065,501.294,112.263,501.294,114.974"/>
	<path fill="#C9AA5D" d="M487.627,110.684c0,2.711-2.198,4.909-4.909,4.909c-2.712,0-4.91-2.198-4.91-4.909
		c0-2.711,2.198-4.909,4.91-4.909C485.429,105.775,487.627,107.973,487.627,110.684"/>
	<path fill="#C9AA5D" d="M559.475,109.884c0,2.711-2.198,4.909-4.909,4.909c-2.712,0-4.91-2.198-4.91-4.909
		c0-2.711,2.198-4.909,4.91-4.909C557.277,104.975,559.475,107.173,559.475,109.884"/>
	<path fill="#C9AA5D" d="M566.99,117.503c0,2.711-2.198,4.909-4.909,4.909c-2.712,0-4.91-2.198-4.91-4.909
		c0-2.711,2.198-4.909,4.91-4.909C564.792,112.594,566.99,114.792,566.99,117.503"/>
	<path fill="#C9AA5D" d="M581.718,114.974c0,2.711-2.198,4.909-4.909,4.909c-2.712,0-4.91-2.198-4.91-4.909
		c0-2.711,2.198-4.909,4.91-4.909C579.52,110.065,581.718,112.263,581.718,114.974"/>
	<path fill="#C9AA5D" d="M592.885,107.935c0,2.711-2.198,4.909-4.909,4.909c-2.712,0-4.91-2.198-4.91-4.909
		c0-2.711,2.198-4.909,4.91-4.909C590.687,103.026,592.885,105.224,592.885,107.935"/>
	<path fill="#C9AA5D" d="M571.899,103.025c0,2.711-2.198,4.909-4.909,4.909c-2.712,0-4.91-2.198-4.91-4.909
		c0-2.711,2.198-4.909,4.91-4.909C569.701,98.116,571.899,100.314,571.899,103.025"/>
	<path fill="#C9AA5D" d="M548.385,112.594c0,2.711-2.198,4.909-4.909,4.909c-2.712,0-4.91-2.198-4.91-4.909
		c0-2.711,2.198-4.909,4.91-4.909C546.187,107.685,548.385,109.883,548.385,112.594"/>
	<path fill="#C9AA5D" d="M822.826,177.484c0,2.711-2.198,4.909-4.909,4.909c-2.712,0-4.91-2.198-4.91-4.909
		c0-2.711,2.198-4.909,4.91-4.909C820.628,172.576,822.826,174.773,822.826,177.484"/>
	<path fill="#C9AA5D" d="M560.475,384.452c0,2.711-2.198,4.909-4.909,4.909c-2.712,0-4.91-2.198-4.91-4.909
		c0-2.711,2.198-4.909,4.91-4.909C558.277,379.543,560.475,381.741,560.475,384.452"/>
	<path fill="#C9AA5D" d="M735.475,221.391c0,2.711-2.198,4.909-4.909,4.909c-2.712,0-4.91-2.198-4.91-4.909
		c0-2.711,2.198-4.909,4.91-4.909C733.277,216.482,735.475,218.68,735.475,221.391"/>
	<path fill="#C9AA5D" d="M739.436,182.557c0,2.711-2.198,4.909-4.909,4.909c-2.712,0-4.91-2.198-4.91-4.909
		c0-2.711,2.198-4.909,4.91-4.909C737.238,177.648,739.436,179.846,739.436,182.557"/>
	<path fill="#C9AA5D" d="M710.885,187.303c0,2.711-2.198,4.909-4.909,4.909c-2.712,0-4.91-2.198-4.91-4.909
		c0-2.711,2.198-4.909,4.91-4.909C708.687,182.394,710.885,184.592,710.885,187.303"/>
	<path fill="#C9AA5D" d="M755.113,180.281c0,2.711-2.198,4.909-4.909,4.909c-2.712,0-4.91-2.198-4.91-4.909
		c0-2.711,2.198-4.909,4.91-4.909C752.915,175.372,755.113,177.57,755.113,180.281"/>
	<path fill="#C9AA5D" d="M559.475,170.462c0,2.711-2.198,4.909-4.909,4.909c-2.712,0-4.91-2.198-4.91-4.909
		c0-2.711,2.198-4.909,4.91-4.909C557.277,165.553,559.475,167.751,559.475,170.462"/>
	<path fill="#C9AA5D" d="M475.718,115.594c0,2.711-2.198,4.909-4.909,4.909c-2.712,0-4.91-2.198-4.91-4.909
		c0-2.711,2.198-4.909,4.91-4.909C473.52,110.685,475.718,112.883,475.718,115.594"/>
	<path fill="#C9AA5D" d="M470.809,96.866c0,2.711-2.198,4.909-4.909,4.909c-2.712,0-4.91-2.198-4.91-4.909
		c0-2.711,2.198-4.909,4.91-4.909C468.611,91.957,470.809,94.155,470.809,96.866"/>
	<path fill="#C9AA5D" d="M483.475,100.974c0,2.711-2.198,4.909-4.909,4.909c-2.712,0-4.91-2.198-4.91-4.909
		c0-2.711,2.198-4.909,4.91-4.909C481.277,96.065,483.475,98.263,483.475,100.974"/>
	<path fill="#C9AA5D" d="M456.051,124.793c0,2.711-2.198,4.909-4.909,4.909c-2.712,0-4.91-2.198-4.91-4.909
		c0-2.711,2.198-4.909,4.91-4.909C453.853,119.884,456.051,122.082,456.051,124.793"/>
	<path fill="#C9AA5D" d="M444.204,128.496c0,2.711-2.198,4.909-4.909,4.909c-2.712,0-4.91-2.198-4.91-4.909
		c0-2.711,2.198-4.909,4.91-4.909C442.006,123.587,444.204,125.785,444.204,128.496"/>
	<path fill="#C9AA5D" d="M441.294,117.503c0,2.711-2.198,4.909-4.909,4.909c-2.712,0-4.91-2.198-4.91-4.909
		c0-2.711,2.198-4.909,4.91-4.909C439.096,112.594,441.294,114.792,441.294,117.503"/>
	<path fill="#C9AA5D" d="M462.961,114.974c0,2.711-2.198,4.909-4.909,4.909c-2.712,0-4.91-2.198-4.91-4.909
		c0-2.711,2.198-4.909,4.91-4.909C460.763,110.065,462.961,112.263,462.961,114.974"/>
	<path fill="#C9AA5D" d="M459.961,104.974c0,2.711-2.198,4.909-4.909,4.909c-2.712,0-4.91-2.198-4.91-4.909
		c0-2.711,2.198-4.909,4.91-4.909C457.763,100.065,459.961,102.263,459.961,104.974"/>
	<path fill="#C9AA5D" d="M480.475,89.976c0,2.711-2.198,4.909-4.909,4.909c-2.712,0-4.91-2.198-4.91-4.909
		c0-2.711,2.198-4.909,4.91-4.909C478.277,85.067,480.475,87.265,480.475,89.976"/>
	<path fill="#C9AA5D" d="M552.566,136.275c0,2.711-2.198,4.909-4.909,4.909c-2.712,0-4.91-2.198-4.91-4.909
		c0-2.711,2.198-4.909,4.91-4.909C550.368,131.366,552.566,133.564,552.566,136.275"/>
	<path fill="#C9AA5D" d="M507.203,101.775c0,2.711-2.198,4.909-4.909,4.909c-2.712,0-4.91-2.198-4.91-4.909
		c0-2.711,2.198-4.909,4.91-4.909C505.005,96.866,507.203,99.064,507.203,101.775"/>
	<path fill="#C9AA5D" d="M495.452,103.025c0,2.711-2.198,4.909-4.909,4.909c-2.712,0-4.91-2.198-4.91-4.909
		c0-2.711,2.198-4.909,4.91-4.909C493.254,98.116,495.452,100.314,495.452,103.025"/>
	<path fill="#C9AA5D" d="M530.809,121.587c0,2.711-2.198,4.909-4.909,4.909c-2.712,0-4.91-2.198-4.91-4.909
		c0-2.711,2.198-4.909,4.91-4.909C528.611,116.678,530.809,118.876,530.809,121.587"/>
	<path fill="#C9AA5D" d="M245.273,86.157c0,2.711-2.198,4.909-4.909,4.909c-2.712,0-4.91-2.198-4.91-4.909
		c0-2.711,2.198-4.909,4.91-4.909C243.075,81.248,245.273,83.446,245.273,86.157"/>
	<path fill="#C9AA5D" d="M436.385,137.184c0,2.711-2.198,4.909-4.909,4.909c-2.712,0-4.91-2.198-4.91-4.909
		c0-2.711,2.198-4.909,4.91-4.909C434.187,132.275,436.385,134.473,436.385,137.184"/>
	<path fill="#C9AA5D" d="M108.376,216.11c-2.267,1.488-5.31,0.857-6.798-1.41s-0.857-5.31,1.41-6.798
		c2.266-1.488,5.31-0.857,6.798,1.41C111.274,211.578,110.643,214.622,108.376,216.11"/>
	<path fill="#C9AA5D" d="M147.643,221.391c0,2.711-2.198,4.909-4.909,4.909c-2.712,0-4.91-2.198-4.91-4.909
		c0-2.711,2.198-4.909,4.91-4.909C145.445,216.482,147.643,218.68,147.643,221.391"/>
	<path fill="#C9AA5D" d="M194.494,310.165c0,2.711-2.198,4.909-4.909,4.909c-2.712,0-4.91-2.198-4.91-4.909
		c0-2.711,2.198-4.909,4.91-4.909C192.296,305.256,194.494,307.454,194.494,310.165"/>
	<path fill="#C9AA5D" d="M271.385,355.703c0,2.711-2.198,4.909-4.909,4.909c-2.712,0-4.91-2.198-4.91-4.909s2.198-4.909,4.91-4.909
		C269.187,350.794,271.385,352.992,271.385,355.703"/>
</g>
</svg>
